<mxfile host="app.diagrams.net" modified="2023-08-21T12:42:36.000Z" agent="Mozilla/5.0 (Macintosh; Intel Mac OS X 10_15_7) AppleWebKit/537.36 (KHTML, like Gecko) Chrome/116.0.0.0 Safari/537.36" etag="5Ma1E8e2s5vMEetXNMZB" version="21.6.8" type="github" pages="3">
  <diagram id="C5RBs43oDa-KdzZeNtuy" name="Page-1">
    <mxGraphModel dx="2074" dy="1125" grid="1" gridSize="10" guides="1" tooltips="1" connect="1" arrows="1" fold="1" page="1" pageScale="1" pageWidth="827" pageHeight="1169" background="#ffffff" math="0" shadow="0">
      <root>
        <mxCell id="WIyWlLk6GJQsqaUBKTNV-0" />
        <mxCell id="WIyWlLk6GJQsqaUBKTNV-1" parent="WIyWlLk6GJQsqaUBKTNV-0" />
        <mxCell id="JCFM8MxgD1CeLyLn2dco-11" style="edgeStyle=orthogonalEdgeStyle;rounded=0;orthogonalLoop=1;jettySize=auto;html=1;entryX=0.5;entryY=0;entryDx=0;entryDy=0;exitX=0.5;exitY=1;exitDx=0;exitDy=0;strokeWidth=1;startArrow=classic;startFill=1;" parent="WIyWlLk6GJQsqaUBKTNV-1" source="JCFM8MxgD1CeLyLn2dco-0" target="JCFM8MxgD1CeLyLn2dco-4" edge="1">
          <mxGeometry relative="1" as="geometry" />
        </mxCell>
        <mxCell id="JCFM8MxgD1CeLyLn2dco-12" style="edgeStyle=orthogonalEdgeStyle;rounded=0;orthogonalLoop=1;jettySize=auto;html=1;" parent="WIyWlLk6GJQsqaUBKTNV-1" source="JCFM8MxgD1CeLyLn2dco-0" target="JCFM8MxgD1CeLyLn2dco-5" edge="1">
          <mxGeometry relative="1" as="geometry" />
        </mxCell>
        <mxCell id="JCFM8MxgD1CeLyLn2dco-13" style="edgeStyle=orthogonalEdgeStyle;rounded=0;orthogonalLoop=1;jettySize=auto;html=1;" parent="WIyWlLk6GJQsqaUBKTNV-1" source="JCFM8MxgD1CeLyLn2dco-0" target="JCFM8MxgD1CeLyLn2dco-6" edge="1">
          <mxGeometry relative="1" as="geometry" />
        </mxCell>
        <mxCell id="JCFM8MxgD1CeLyLn2dco-14" style="edgeStyle=orthogonalEdgeStyle;rounded=0;orthogonalLoop=1;jettySize=auto;html=1;entryX=0.5;entryY=0;entryDx=0;entryDy=0;" parent="WIyWlLk6GJQsqaUBKTNV-1" target="JCFM8MxgD1CeLyLn2dco-7" edge="1">
          <mxGeometry relative="1" as="geometry">
            <mxPoint x="245" y="205" as="sourcePoint" />
            <mxPoint x="455" y="315" as="targetPoint" />
            <Array as="points">
              <mxPoint x="245" y="255" />
              <mxPoint x="455" y="255" />
            </Array>
          </mxGeometry>
        </mxCell>
        <mxCell id="JCFM8MxgD1CeLyLn2dco-15" value="&lt;div style=&quot;text-align: left; font-size: 11px;&quot;&gt;&lt;font style=&quot;font-size: 11px;&quot;&gt;1. 数据格式验证&lt;/font&gt;&lt;/div&gt;&lt;div style=&quot;text-align: left; font-size: 11px;&quot;&gt;&lt;font style=&quot;font-size: 11px;&quot;&gt;2. 数据加解密&lt;/font&gt;&lt;/div&gt;&lt;div style=&quot;text-align: left; font-size: 11px;&quot;&gt;&lt;font style=&quot;font-size: 11px;&quot;&gt;3. 按协议组织工单&lt;/font&gt;&lt;/div&gt;" style="edgeLabel;html=1;align=center;verticalAlign=middle;resizable=0;points=[];" parent="JCFM8MxgD1CeLyLn2dco-14" vertex="1" connectable="0">
          <mxGeometry x="-0.8839" y="1" relative="1" as="geometry">
            <mxPoint x="54" y="7" as="offset" />
          </mxGeometry>
        </mxCell>
        <mxCell id="JCFM8MxgD1CeLyLn2dco-0" value="百度反诈平台" style="rounded=0;whiteSpace=wrap;html=1;fillColor=#f8cecc;strokeColor=#b85450;" parent="WIyWlLk6GJQsqaUBKTNV-1" vertex="1">
          <mxGeometry x="185" y="150" width="120" height="50" as="geometry" />
        </mxCell>
        <mxCell id="JCFM8MxgD1CeLyLn2dco-2" style="edgeStyle=orthogonalEdgeStyle;rounded=0;orthogonalLoop=1;jettySize=auto;html=1;entryX=0.5;entryY=0;entryDx=0;entryDy=0;" parent="WIyWlLk6GJQsqaUBKTNV-1" source="JCFM8MxgD1CeLyLn2dco-1" target="JCFM8MxgD1CeLyLn2dco-0" edge="1">
          <mxGeometry relative="1" as="geometry" />
        </mxCell>
        <mxCell id="JCFM8MxgD1CeLyLn2dco-3" value="物理专线" style="edgeLabel;html=1;align=center;verticalAlign=middle;resizable=0;points=[];" parent="JCFM8MxgD1CeLyLn2dco-2" vertex="1" connectable="0">
          <mxGeometry x="-0.3709" y="2" relative="1" as="geometry">
            <mxPoint x="23" y="25" as="offset" />
          </mxGeometry>
        </mxCell>
        <mxCell id="JCFM8MxgD1CeLyLn2dco-1" value="行业反诈平台" style="rounded=0;whiteSpace=wrap;html=1;fillColor=#fff2cc;strokeColor=#d6b656;" parent="WIyWlLk6GJQsqaUBKTNV-1" vertex="1">
          <mxGeometry x="190" y="20" width="110" height="40" as="geometry" />
        </mxCell>
        <mxCell id="JCFM8MxgD1CeLyLn2dco-4" value="passport" style="rounded=0;whiteSpace=wrap;html=1;fillColor=#d5e8d4;strokeColor=#82b366;" parent="WIyWlLk6GJQsqaUBKTNV-1" vertex="1">
          <mxGeometry x="10" y="310" width="110" height="40" as="geometry" />
        </mxCell>
        <mxCell id="JCFM8MxgD1CeLyLn2dco-5" value="百度云" style="rounded=0;whiteSpace=wrap;html=1;fillColor=#d5e8d4;strokeColor=#82b366;" parent="WIyWlLk6GJQsqaUBKTNV-1" vertex="1">
          <mxGeometry x="140" y="310" width="110" height="40" as="geometry" />
        </mxCell>
        <mxCell id="JCFM8MxgD1CeLyLn2dco-6" value="CDN" style="rounded=0;whiteSpace=wrap;html=1;fillColor=#d5e8d4;strokeColor=#82b366;" parent="WIyWlLk6GJQsqaUBKTNV-1" vertex="1">
          <mxGeometry x="270" y="310" width="110" height="40" as="geometry" />
        </mxCell>
        <mxCell id="JCFM8MxgD1CeLyLn2dco-7" value="浏览器" style="rounded=0;whiteSpace=wrap;html=1;fillColor=#d5e8d4;strokeColor=#82b366;" parent="WIyWlLk6GJQsqaUBKTNV-1" vertex="1">
          <mxGeometry x="400" y="310" width="110" height="40" as="geometry" />
        </mxCell>
      </root>
    </mxGraphModel>
  </diagram>
  <diagram id="UVUKvCfbRqX3pPovcblq" name="第 2 页">
    <mxGraphModel dx="1280" dy="804" grid="1" gridSize="10" guides="1" tooltips="1" connect="1" arrows="1" fold="1" page="1" pageScale="1" pageWidth="827" pageHeight="1169" math="0" shadow="0">
      <root>
        <mxCell id="0" />
        <mxCell id="1" parent="0" />
        <mxCell id="i7ofV3eqgfMBiGWhRXzq-30" style="edgeStyle=orthogonalEdgeStyle;rounded=0;orthogonalLoop=1;jettySize=auto;html=1;dashed=1;endArrow=none;endFill=0;" edge="1" parent="1" source="i7ofV3eqgfMBiGWhRXzq-1">
          <mxGeometry relative="1" as="geometry">
            <mxPoint x="85" y="800" as="targetPoint" />
          </mxGeometry>
        </mxCell>
        <mxCell id="i7ofV3eqgfMBiGWhRXzq-1" value="工信部" style="shape=umlActor;verticalLabelPosition=bottom;verticalAlign=top;html=1;" vertex="1" parent="1">
          <mxGeometry x="70" y="270" width="30" height="60" as="geometry" />
        </mxCell>
        <mxCell id="i7ofV3eqgfMBiGWhRXzq-18" value="1.处置指令下发" style="html=1;verticalAlign=bottom;endArrow=block;edgeStyle=elbowEdgeStyle;elbow=vertical;curved=0;rounded=0;" edge="1" parent="1">
          <mxGeometry relative="1" as="geometry">
            <mxPoint x="90" y="370" as="sourcePoint" />
            <mxPoint x="230" y="370.28571428571445" as="targetPoint" />
          </mxGeometry>
        </mxCell>
        <mxCell id="i7ofV3eqgfMBiGWhRXzq-21" value="百度反诈平台" style="shape=umlLifeline;perimeter=lifelinePerimeter;whiteSpace=wrap;html=1;container=1;dropTarget=0;collapsible=0;recursiveResize=0;outlineConnect=0;portConstraint=eastwest;newEdgeStyle={&quot;edgeStyle&quot;:&quot;elbowEdgeStyle&quot;,&quot;elbow&quot;:&quot;vertical&quot;,&quot;curved&quot;:0,&quot;rounded&quot;:0};" vertex="1" parent="1">
          <mxGeometry x="195" y="270" width="100" height="530" as="geometry" />
        </mxCell>
        <mxCell id="i7ofV3eqgfMBiGWhRXzq-17" value="" style="html=1;points=[];perimeter=orthogonalPerimeter;outlineConnect=0;targetShapes=umlLifeline;portConstraint=eastwest;newEdgeStyle={&quot;edgeStyle&quot;:&quot;elbowEdgeStyle&quot;,&quot;elbow&quot;:&quot;vertical&quot;,&quot;curved&quot;:0,&quot;rounded&quot;:0};" vertex="1" parent="i7ofV3eqgfMBiGWhRXzq-21">
          <mxGeometry x="45" y="65" width="10" height="400" as="geometry" />
        </mxCell>
        <mxCell id="i7ofV3eqgfMBiGWhRXzq-22" value="" style="endArrow=open;endFill=1;endSize=12;html=1;rounded=0;" edge="1" parent="1" target="i7ofV3eqgfMBiGWhRXzq-21">
          <mxGeometry width="160" relative="1" as="geometry">
            <mxPoint x="250" y="390" as="sourcePoint" />
            <mxPoint x="340" y="490" as="targetPoint" />
            <Array as="points">
              <mxPoint x="300" y="390" />
              <mxPoint x="300" y="440" />
            </Array>
          </mxGeometry>
        </mxCell>
        <mxCell id="i7ofV3eqgfMBiGWhRXzq-23" value="2. 数据验证" style="edgeLabel;html=1;align=center;verticalAlign=middle;resizable=0;points=[];" vertex="1" connectable="0" parent="i7ofV3eqgfMBiGWhRXzq-22">
          <mxGeometry x="-0.7009" y="1" relative="1" as="geometry">
            <mxPoint x="7" y="-9" as="offset" />
          </mxGeometry>
        </mxCell>
        <mxCell id="i7ofV3eqgfMBiGWhRXzq-24" value="3. 数据验证失败" style="html=1;verticalAlign=bottom;endArrow=open;dashed=1;endSize=8;edgeStyle=elbowEdgeStyle;elbow=vertical;curved=0;rounded=0;" edge="1" parent="1">
          <mxGeometry relative="1" as="geometry">
            <mxPoint x="240" y="440" as="sourcePoint" />
            <mxPoint x="90" y="460" as="targetPoint" />
            <Array as="points">
              <mxPoint x="200" y="460" />
            </Array>
          </mxGeometry>
        </mxCell>
        <mxCell id="i7ofV3eqgfMBiGWhRXzq-25" value="百度各内部业务线" style="shape=umlLifeline;perimeter=lifelinePerimeter;whiteSpace=wrap;html=1;container=1;dropTarget=0;collapsible=0;recursiveResize=0;outlineConnect=0;portConstraint=eastwest;newEdgeStyle={&quot;edgeStyle&quot;:&quot;elbowEdgeStyle&quot;,&quot;elbow&quot;:&quot;vertical&quot;,&quot;curved&quot;:0,&quot;rounded&quot;:0};" vertex="1" parent="1">
          <mxGeometry x="430" y="260" width="100" height="530" as="geometry" />
        </mxCell>
        <mxCell id="i7ofV3eqgfMBiGWhRXzq-26" value="" style="html=1;points=[];perimeter=orthogonalPerimeter;outlineConnect=0;targetShapes=umlLifeline;portConstraint=eastwest;newEdgeStyle={&quot;edgeStyle&quot;:&quot;elbowEdgeStyle&quot;,&quot;elbow&quot;:&quot;vertical&quot;,&quot;curved&quot;:0,&quot;rounded&quot;:0};" vertex="1" parent="i7ofV3eqgfMBiGWhRXzq-25">
          <mxGeometry x="45" y="140" width="10" height="330" as="geometry" />
        </mxCell>
        <mxCell id="i7ofV3eqgfMBiGWhRXzq-27" value="4. 数据转发" style="html=1;verticalAlign=bottom;endArrow=block;edgeStyle=elbowEdgeStyle;elbow=vertical;curved=0;rounded=0;" edge="1" parent="1" target="i7ofV3eqgfMBiGWhRXzq-26">
          <mxGeometry width="80" relative="1" as="geometry">
            <mxPoint x="250" y="490" as="sourcePoint" />
            <mxPoint x="330" y="490" as="targetPoint" />
          </mxGeometry>
        </mxCell>
        <mxCell id="i7ofV3eqgfMBiGWhRXzq-35" value="5. 数据接收成功应答" style="html=1;verticalAlign=bottom;endArrow=block;edgeStyle=elbowEdgeStyle;elbow=vertical;curved=0;rounded=0;" edge="1" parent="1">
          <mxGeometry width="80" relative="1" as="geometry">
            <mxPoint x="469.5000000000002" y="540.2857142857144" as="sourcePoint" />
            <mxPoint x="260" y="540" as="targetPoint" />
          </mxGeometry>
        </mxCell>
        <mxCell id="i7ofV3eqgfMBiGWhRXzq-36" value="6. 指令下发状态应答" style="html=1;verticalAlign=bottom;endArrow=block;edgeStyle=elbowEdgeStyle;elbow=vertical;curved=0;rounded=0;" edge="1" parent="1">
          <mxGeometry width="80" relative="1" as="geometry">
            <mxPoint x="240" y="580" as="sourcePoint" />
            <mxPoint x="85.5" y="580" as="targetPoint" />
          </mxGeometry>
        </mxCell>
        <mxCell id="i7ofV3eqgfMBiGWhRXzq-37" value="7. 涉诈数据处置" style="ellipse;shape=umlControl;whiteSpace=wrap;html=1;" vertex="1" parent="1">
          <mxGeometry x="490" y="585" width="70" height="80" as="geometry" />
        </mxCell>
      </root>
    </mxGraphModel>
  </diagram>
  <diagram id="Vm0GWDFm5zE8nl61sEH-" name="第 3 页">
    <mxGraphModel dx="969" dy="608" grid="1" gridSize="10" guides="1" tooltips="1" connect="1" arrows="1" fold="1" page="1" pageScale="1" pageWidth="827" pageHeight="1169" math="0" shadow="0">
      <root>
        <mxCell id="0" />
        <mxCell id="1" parent="0" />
        <mxCell id="A0S9umdgmPXsrbSd_Sci-1" style="edgeStyle=orthogonalEdgeStyle;rounded=0;orthogonalLoop=1;jettySize=auto;html=1;dashed=1;endArrow=none;endFill=0;" edge="1" parent="1" source="A0S9umdgmPXsrbSd_Sci-2">
          <mxGeometry relative="1" as="geometry">
            <mxPoint x="85" y="800" as="targetPoint" />
          </mxGeometry>
        </mxCell>
        <mxCell id="A0S9umdgmPXsrbSd_Sci-2" value="百度各业务线" style="shape=umlActor;verticalLabelPosition=bottom;verticalAlign=top;html=1;" vertex="1" parent="1">
          <mxGeometry x="70" y="270" width="30" height="60" as="geometry" />
        </mxCell>
        <mxCell id="A0S9umdgmPXsrbSd_Sci-3" value="1. 处置结果反馈/数据上报" style="html=1;verticalAlign=bottom;endArrow=block;edgeStyle=elbowEdgeStyle;elbow=vertical;curved=0;rounded=0;" edge="1" parent="1">
          <mxGeometry relative="1" as="geometry">
            <mxPoint x="90" y="370" as="sourcePoint" />
            <mxPoint x="230" y="370.28571428571445" as="targetPoint" />
          </mxGeometry>
        </mxCell>
        <mxCell id="A0S9umdgmPXsrbSd_Sci-4" value="百度反诈平台" style="shape=umlLifeline;perimeter=lifelinePerimeter;whiteSpace=wrap;html=1;container=1;dropTarget=0;collapsible=0;recursiveResize=0;outlineConnect=0;portConstraint=eastwest;newEdgeStyle={&quot;edgeStyle&quot;:&quot;elbowEdgeStyle&quot;,&quot;elbow&quot;:&quot;vertical&quot;,&quot;curved&quot;:0,&quot;rounded&quot;:0};" vertex="1" parent="1">
          <mxGeometry x="195" y="270" width="100" height="530" as="geometry" />
        </mxCell>
        <mxCell id="A0S9umdgmPXsrbSd_Sci-5" value="" style="html=1;points=[];perimeter=orthogonalPerimeter;outlineConnect=0;targetShapes=umlLifeline;portConstraint=eastwest;newEdgeStyle={&quot;edgeStyle&quot;:&quot;elbowEdgeStyle&quot;,&quot;elbow&quot;:&quot;vertical&quot;,&quot;curved&quot;:0,&quot;rounded&quot;:0};" vertex="1" parent="A0S9umdgmPXsrbSd_Sci-4">
          <mxGeometry x="45" y="65" width="10" height="400" as="geometry" />
        </mxCell>
        <mxCell id="A0S9umdgmPXsrbSd_Sci-6" value="" style="endArrow=open;endFill=1;endSize=12;html=1;rounded=0;" edge="1" parent="1" target="A0S9umdgmPXsrbSd_Sci-4">
          <mxGeometry width="160" relative="1" as="geometry">
            <mxPoint x="250" y="390" as="sourcePoint" />
            <mxPoint x="340" y="490" as="targetPoint" />
            <Array as="points">
              <mxPoint x="300" y="390" />
              <mxPoint x="300" y="440" />
            </Array>
          </mxGeometry>
        </mxCell>
        <mxCell id="A0S9umdgmPXsrbSd_Sci-7" value="2. 数据验证 &lt;br&gt;生成工单&lt;br&gt;数据加密" style="edgeLabel;html=1;align=center;verticalAlign=middle;resizable=0;points=[];" vertex="1" connectable="0" parent="A0S9umdgmPXsrbSd_Sci-6">
          <mxGeometry x="-0.7009" y="1" relative="1" as="geometry">
            <mxPoint x="17" y="-29" as="offset" />
          </mxGeometry>
        </mxCell>
        <mxCell id="A0S9umdgmPXsrbSd_Sci-8" value="3. 数据加密失败/ 验证失败" style="html=1;verticalAlign=bottom;endArrow=open;dashed=1;endSize=8;edgeStyle=elbowEdgeStyle;elbow=vertical;curved=0;rounded=0;" edge="1" parent="1">
          <mxGeometry relative="1" as="geometry">
            <mxPoint x="240" y="440" as="sourcePoint" />
            <mxPoint x="90" y="460" as="targetPoint" />
            <Array as="points">
              <mxPoint x="200" y="460" />
            </Array>
          </mxGeometry>
        </mxCell>
        <mxCell id="A0S9umdgmPXsrbSd_Sci-9" value="工信部" style="shape=umlLifeline;perimeter=lifelinePerimeter;whiteSpace=wrap;html=1;container=1;dropTarget=0;collapsible=0;recursiveResize=0;outlineConnect=0;portConstraint=eastwest;newEdgeStyle={&quot;edgeStyle&quot;:&quot;elbowEdgeStyle&quot;,&quot;elbow&quot;:&quot;vertical&quot;,&quot;curved&quot;:0,&quot;rounded&quot;:0};" vertex="1" parent="1">
          <mxGeometry x="430" y="270" width="100" height="530" as="geometry" />
        </mxCell>
        <mxCell id="A0S9umdgmPXsrbSd_Sci-10" value="" style="html=1;points=[];perimeter=orthogonalPerimeter;outlineConnect=0;targetShapes=umlLifeline;portConstraint=eastwest;newEdgeStyle={&quot;edgeStyle&quot;:&quot;elbowEdgeStyle&quot;,&quot;elbow&quot;:&quot;vertical&quot;,&quot;curved&quot;:0,&quot;rounded&quot;:0};" vertex="1" parent="A0S9umdgmPXsrbSd_Sci-9">
          <mxGeometry x="45" y="140" width="10" height="330" as="geometry" />
        </mxCell>
        <mxCell id="A0S9umdgmPXsrbSd_Sci-11" value="4. 数据上报" style="html=1;verticalAlign=bottom;endArrow=block;edgeStyle=elbowEdgeStyle;elbow=vertical;curved=0;rounded=0;" edge="1" parent="1" target="A0S9umdgmPXsrbSd_Sci-10">
          <mxGeometry width="80" relative="1" as="geometry">
            <mxPoint x="250" y="490" as="sourcePoint" />
            <mxPoint x="330" y="490" as="targetPoint" />
          </mxGeometry>
        </mxCell>
        <mxCell id="A0S9umdgmPXsrbSd_Sci-12" value="5. 数据上报应答报文" style="html=1;verticalAlign=bottom;endArrow=block;edgeStyle=elbowEdgeStyle;elbow=vertical;curved=0;rounded=0;" edge="1" parent="1">
          <mxGeometry width="80" relative="1" as="geometry">
            <mxPoint x="469.5000000000002" y="540.2857142857144" as="sourcePoint" />
            <mxPoint x="260" y="540" as="targetPoint" />
          </mxGeometry>
        </mxCell>
        <mxCell id="A0S9umdgmPXsrbSd_Sci-13" value="6. 数据上报结果报文" style="html=1;verticalAlign=bottom;endArrow=block;edgeStyle=elbowEdgeStyle;elbow=vertical;curved=0;rounded=0;" edge="1" parent="1">
          <mxGeometry width="80" relative="1" as="geometry">
            <mxPoint x="240" y="580" as="sourcePoint" />
            <mxPoint x="85.5" y="580" as="targetPoint" />
          </mxGeometry>
        </mxCell>
      </root>
    </mxGraphModel>
  </diagram>
</mxfile>
